<svg width="94" height="94" viewBox="0 0 94 94" fill="none" xmlns="http://www.w3.org/2000/svg">
<g filter="url(#filter0_d_3_26)">
<circle cx="47" cy="42" r="22" fill="url(#paint0_linear_3_26)"/>
</g>
<path d="M49.7002 30.5H41.3002C40.7432 30.5 40.2091 30.7212 39.8153 31.1151C39.4214 31.5089 39.2002 32.043 39.2002 32.6V49.4C39.2002 49.957 39.4214 50.4911 39.8153 50.8849C40.2091 51.2787 40.7432 51.5 41.3002 51.5H53.9002C54.4571 51.5 54.9913 51.2787 55.3851 50.8849C55.7789 50.4911 56.0002 49.957 56.0002 49.4V36.8L49.7002 30.5Z" stroke="white" stroke-linecap="round" stroke-linejoin="round"/>
<path d="M49.7002 30.5V36.8H56.0002" stroke="white" stroke-linecap="round" stroke-linejoin="round"/>
<path d="M51.8 42.05H43.4" stroke="white" stroke-linecap="round" stroke-linejoin="round"/>
<path d="M51.8 46.25H43.4" stroke="white" stroke-linecap="round" stroke-linejoin="round"/>
<path d="M45.5 37.8504H44.45H43.4" stroke="white" stroke-linecap="round" stroke-linejoin="round"/>
<defs>
<filter id="filter0_d_3_26" x="0" y="0" width="94" height="94" filterUnits="userSpaceOnUse" color-interpolation-filters="sRGB">
<feFlood flood-opacity="0" result="BackgroundImageFix"/>
<feColorMatrix in="SourceAlpha" type="matrix" values="0 0 0 0 0 0 0 0 0 0 0 0 0 0 0 0 0 0 127 0" result="hardAlpha"/>
<feOffset dy="5"/>
<feGaussianBlur stdDeviation="12.5"/>
<feColorMatrix type="matrix" values="0 0 0 0 0.0555556 0 0 0 0 0.533333 0 0 0 0 0.262053 0 0 0 0.41 0"/>
<feBlend mode="normal" in2="BackgroundImageFix" result="effect1_dropShadow_3_26"/>
<feBlend mode="normal" in="SourceGraphic" in2="effect1_dropShadow_3_26" result="shape"/>
</filter>
<linearGradient id="paint0_linear_3_26" x1="25" y1="20" x2="56.9091" y2="70.4616" gradientUnits="userSpaceOnUse">
<stop stop-color="#FF1E22"/>
<stop offset="1" stop-color="#6C4647"/>
</linearGradient>
</defs>
</svg>
